<svg width="25" height="16" viewBox="0 0 25 16" fill="none" xmlns="http://www.w3.org/2000/svg">
<path d="M12.375 0.75H10.3969C10.2938 0.75 10.2094 0.834375 10.2094 0.9375V11.5688H10.0312L2.66875 0.83125C2.63437 0.78125 2.575 0.75 2.51562 0.75H0.4375C0.334375 0.75 0.25 0.834375 0.25 0.9375V15.4375C0.25 15.5406 0.334375 15.625 0.4375 15.625H2.39687C2.5 15.625 2.58437 15.5406 2.58437 15.4375V4.65938H2.7625L10.2063 15.5438C10.2406 15.5938 10.3 15.625 10.3625 15.625H12.375C12.4781 15.625 12.5625 15.5406 12.5625 15.4375V0.9375C12.5625 0.834375 12.4781 0.75 12.375 0.75ZM24.1875 13.6562H14.6875C14.55 13.6562 14.4375 13.7688 14.4375 13.9062V15.4062C14.4375 15.5437 14.55 15.6562 14.6875 15.6562H24.1875C24.325 15.6562 24.4375 15.5437 24.4375 15.4062V13.9062C24.4375 13.7688 24.325 13.6562 24.1875 13.6562ZM19.4312 11.6875C21.0844 11.6875 22.4062 11.15 23.375 10.0719C24.2938 9.04375 24.75 7.70312 24.75 6.04688C24.75 4.3875 24.2938 3.03125 23.375 2.00625C22.4094 0.91875 21.0875 0.375 19.4312 0.375C17.7531 0.375 16.4344 0.921875 15.4844 2.025C14.5719 3.05937 14.1281 4.39687 14.1281 6.04688C14.1281 7.68437 14.575 9.02187 15.4875 10.0562C16.4437 11.1406 17.7687 11.6875 19.4312 11.6875ZM17.1969 3.44687C17.725 2.80312 18.4563 2.48125 19.4281 2.48125C20.4125 2.48125 21.1406 2.78125 21.6469 3.39062C22.1594 4.025 22.425 4.90937 22.425 6.04375C22.425 7.17812 22.1625 8.04687 21.65 8.66562C21.1344 9.27187 20.4 9.57812 19.4281 9.57812C18.4531 9.57812 17.7094 9.25625 17.1969 8.62812C16.6875 8 16.4312 7.15 16.4312 6.04688C16.4344 4.92812 16.6875 4.07812 17.1969 3.44687Z" fill="#1A191C"/>
</svg>
